<svg version="1.1" id="Layer_1" xmlns="http://www.w3.org/2000/svg" xmlns:xlink="http://www.w3.org/1999/xlink" x="0px" y="0px"
	width="100%" viewBox="0 0 1087 780" enable-background="new 0 0 1087 780" xml:space="preserve">
<path fill="#000000" opacity="1.000000" stroke="none" 
	d="
M485.000000,744.000000 
	C470.833435,744.000000 457.165039,743.856995 443.500763,744.033447 
	C422.995361,744.298340 415.618500,724.576416 422.461945,710.000488 
	C435.357758,682.533325 448.136993,655.011292 461.058472,627.556213 
	C469.266968,610.115112 477.732849,592.795044 485.923584,575.345764 
	C495.744446,554.423645 505.334564,533.393250 515.139038,512.463379 
	C522.974670,495.736542 531.046143,479.120300 538.896362,462.400269 
	C549.335022,440.167297 559.614197,417.859436 570.049622,395.624939 
	C577.896545,378.905975 585.946899,362.282593 593.788696,345.561279 
	C603.944641,323.905701 613.929382,302.169769 624.091675,280.517181 
	C630.712402,266.410583 637.590088,252.424713 644.225952,238.325150 
	C658.993286,206.948349 673.692078,175.539307 688.396729,144.133057 
	C695.680908,128.575455 702.913025,112.993416 710.174683,97.425232 
	C717.163269,82.442558 723.926758,67.349129 731.214417,52.513260 
	C739.406982,35.835125 755.598816,33.980839 767.340210,42.517899 
	C772.307983,46.129925 775.191956,53.002842 778.206665,58.816948 
	C783.154297,68.359161 787.426819,78.251015 792.000793,87.987595 
	C805.723633,117.199486 819.447571,146.410873 833.185181,175.615814 
	C840.361511,190.872116 847.713562,206.048141 854.683289,221.397995 
	C857.245972,227.041824 858.828369,233.123184 861.057251,238.928452 
	C863.057556,244.138657 861.090942,248.839996 859.110535,253.304321 
	C853.966614,264.900055 848.397522,276.306885 843.021118,287.799866 
	C829.960083,315.720062 816.932373,343.655823 803.851318,371.566620 
	C796.424500,387.413269 788.902039,403.215057 781.452759,419.051270 
	C770.242676,442.882538 759.078369,466.735382 747.857178,490.561401 
	C740.330383,506.542999 732.682861,522.467834 725.190063,538.465210 
	C715.044983,560.125244 705.038818,581.850342 694.892456,603.509827 
	C687.398926,619.506409 679.737305,635.424072 672.221008,651.410095 
	C661.084839,675.094971 650.109314,698.856079 638.835510,722.474976 
	C636.296082,727.794983 633.154480,732.916809 629.661743,737.668030 
	C626.039490,742.595581 620.394775,743.981995 614.495361,743.985657 
	C571.496887,744.012390 528.498474,744.000000 485.000000,744.000000 
z"/>
<path fill="#000000" opacity="1.000000" stroke="none" 
	d="
M143.994781,524.072021 
	C154.421127,501.600769 164.765152,479.496765 175.218369,457.444519 
	C182.031708,443.071045 189.099365,428.817871 195.884644,414.431366 
	C209.716782,385.103546 223.434250,355.721649 237.200592,326.362793 
	C244.560318,310.667053 251.913055,294.968018 259.287415,279.279144 
	C272.604126,250.947876 285.938354,222.624863 299.257996,194.294952 
	C306.360413,179.188583 313.443848,164.073303 320.542603,148.965195 
	C331.466156,125.716866 342.343689,102.446693 353.345520,79.235451 
	C358.428284,68.512024 363.198242,57.581730 369.127167,47.333698 
	C375.646912,36.064415 394.145966,34.260662 403.035614,43.756615 
	C406.707672,47.679111 409.555054,52.586288 411.950195,57.452789 
	C420.103607,74.018799 427.942932,90.740562 435.800720,107.450577 
	C446.593597,130.402145 457.258026,153.414108 468.045990,176.367996 
	C475.627380,192.499084 482.919403,208.785034 491.097015,224.611008 
	C497.467651,236.939987 496.849121,248.467224 490.878998,260.601501 
	C480.668243,281.354767 470.915344,302.333435 460.982422,323.223267 
	C452.707825,340.625488 444.412659,358.018066 436.195190,375.447266 
	C424.417603,400.427521 412.676880,425.425262 400.969116,450.438354 
	C392.601013,468.316467 384.359894,486.254120 375.975372,504.124481 
	C368.063965,520.986511 359.991821,537.773132 352.075684,554.632996 
	C341.297485,577.588623 330.632233,600.597229 319.857452,623.554504 
	C312.353546,639.542603 304.693848,655.457764 297.200104,671.450623 
	C288.485931,690.047974 279.715973,708.622070 271.283020,727.347107 
	C266.222656,738.583374 258.279755,744.155640 245.636597,744.101990 
	C189.982468,743.865662 134.326752,744.026489 78.671684,743.975952 
	C68.478699,743.966675 60.010971,740.411072 56.200703,730.251160 
	C53.806301,723.866577 53.953648,717.064331 56.819984,710.694397 
	C61.430336,700.448669 66.234367,690.289612 70.993919,680.111450 
	C84.048462,652.194702 97.106575,624.279602 110.194885,596.378662 
	C117.626053,580.537292 125.132797,564.731445 132.578796,548.896973 
	C136.402359,540.765991 140.167343,532.607361 143.994781,524.072021 
z"/>
<path fill="#000000" opacity="1.000000" stroke="none" 
	d="
M850.237427,586.352051 
	C864.167725,567.491333 881.419556,553.683960 904.129822,548.126282 
	C914.618469,545.559509 925.556396,543.076782 936.216309,543.359314 
	C953.511597,543.817749 969.791809,548.893860 985.014343,558.089966 
	C995.805359,564.608826 1004.385559,573.167297 1012.401794,582.290527 
	C1017.667969,588.283813 1021.624573,595.769043 1024.818970,603.168396 
	C1030.871704,617.188416 1035.010376,631.910889 1033.917358,647.400085 
	C1032.473022,667.865173 1026.398193,686.748535 1014.082214,703.563843 
	C1003.823364,717.570496 990.858032,727.954529 975.279480,735.252625 
	C966.184692,739.513306 956.706848,742.073853 946.596497,743.189514 
	C934.533752,744.520630 922.687378,744.146851 910.868164,741.957214 
	C896.212463,739.242065 883.128235,732.775024 871.390015,723.781799 
	C858.520142,713.921631 848.704346,701.536072 841.910461,686.693726 
	C836.307495,674.453125 833.125549,661.869263 832.876892,648.306702 
	C832.545837,630.253113 835.363708,613.072205 844.009644,597.072449 
	C845.914795,593.547058 848.017700,590.128418 850.237427,586.352051 
z"/>
</svg>